# Blender 4.2.0
# www.blender.org
mtllib cint_points_test.mtl
o Circle__point
v 0.867478 4.083622 512.900818
v 0.867478 4.083622 512.805359
v 0.867478 4.102244 512.807190
v 0.867478 4.120151 512.812622
v 0.867478 4.136653 512.821472
v 0.867478 4.151118 512.833313
v 0.867478 4.162989 512.847778
v 0.867478 4.171810 512.864319
v 0.867478 4.177242 512.882202
v 0.867478 4.179076 512.900818
v 0.867478 4.177242 512.919434
v 0.867478 4.171810 512.937317
v 0.867478 4.162989 512.953857
v 0.867478 4.151118 512.968323
v 0.867478 4.136653 512.980164
v 0.867478 4.120151 512.989014
v 0.867478 4.102244 512.994446
v 0.867478 4.083622 512.996277
v 0.867478 4.065001 512.994446
v 0.867478 4.047094 512.989014
v 0.867478 4.030591 512.980164
v 0.867478 4.016127 512.968323
v 0.867478 4.004256 512.953857
v 0.867478 3.995435 512.937317
v 0.867478 3.990003 512.919434
v 0.867478 3.988169 512.900818
v 0.867478 3.990003 512.882202
v 0.867478 3.995435 512.864319
v 0.867478 4.004256 512.847778
v 0.867478 4.016127 512.833313
v 0.867478 4.030591 512.821472
v 0.867478 4.047094 512.812622
v 0.867478 4.065001 512.807190
vn 1.0000 -0.0000 -0.0000
vt 0.500000 0.500000
vt 0.500000 1.000000
vt 0.402455 0.990393
vt 0.308658 0.961940
vt 0.222215 0.915735
vt 0.146447 0.853553
vt 0.084265 0.777785
vt 0.038060 0.691342
vt 0.009607 0.597545
vt 0.000000 0.500000
vt 0.009607 0.402455
vt 0.038060 0.308658
vt 0.084265 0.222215
vt 0.146447 0.146447
vt 0.222215 0.084265
vt 0.308658 0.038060
vt 0.402455 0.009607
vt 0.500000 0.000000
vt 0.597545 0.009607
vt 0.691342 0.038060
vt 0.777785 0.084265
vt 0.853553 0.146447
vt 0.915735 0.222215
vt 0.961940 0.308658
vt 0.990393 0.402455
vt 1.000000 0.500000
vt 0.990393 0.597545
vt 0.961940 0.691342
vt 0.915735 0.777785
vt 0.853553 0.853553
vt 0.777785 0.915735
vt 0.691342 0.961940
vt 0.597545 0.990393
s 0
f 1/1/1 2/2/1 3/3/1
f 1/1/1 3/3/1 4/4/1
f 1/1/1 4/4/1 5/5/1
f 1/1/1 5/5/1 6/6/1
f 1/1/1 6/6/1 7/7/1
f 1/1/1 7/7/1 8/8/1
f 1/1/1 8/8/1 9/9/1
f 1/1/1 9/9/1 10/10/1
f 1/1/1 10/10/1 11/11/1
f 1/1/1 11/11/1 12/12/1
f 1/1/1 12/12/1 13/13/1
f 1/1/1 13/13/1 14/14/1
f 1/1/1 14/14/1 15/15/1
f 1/1/1 15/15/1 16/16/1
f 1/1/1 16/16/1 17/17/1
f 1/1/1 17/17/1 18/18/1
f 1/1/1 18/18/1 19/19/1
f 1/1/1 19/19/1 20/20/1
f 1/1/1 20/20/1 21/21/1
f 1/1/1 21/21/1 22/22/1
f 1/1/1 22/22/1 23/23/1
f 1/1/1 23/23/1 24/24/1
f 1/1/1 24/24/1 25/25/1
f 1/1/1 25/25/1 26/26/1
f 1/1/1 26/26/1 27/27/1
f 1/1/1 27/27/1 28/28/1
f 1/1/1 28/28/1 29/29/1
f 1/1/1 29/29/1 30/30/1
f 1/1/1 30/30/1 31/31/1
f 1/1/1 31/31/1 32/32/1
f 1/1/1 32/32/1 33/33/1
f 1/1/1 33/33/1 2/2/1
o Circle_point_001
v 2.594759 -2.026839 511.463409
v 2.594759 -2.026839 511.367950
v 2.594759 -2.008217 511.369781
v 2.594759 -1.990311 511.375214
v 2.594759 -1.973808 511.384033
v 2.594759 -1.959343 511.395905
v 2.594759 -1.947473 511.410370
v 2.594759 -1.938652 511.426880
v 2.594759 -1.933220 511.444794
v 2.594759 -1.931386 511.463409
v 2.594759 -1.933220 511.482025
v 2.594759 -1.938652 511.499939
v 2.594759 -1.947473 511.516449
v 2.594759 -1.959343 511.530914
v 2.594759 -1.973808 511.542786
v 2.594759 -1.990311 511.551605
v 2.594759 -2.008217 511.557037
v 2.594759 -2.026839 511.558868
v 2.594759 -2.045461 511.557037
v 2.594759 -2.063368 511.551605
v 2.594759 -2.079870 511.542786
v 2.594759 -2.094335 511.530914
v 2.594759 -2.106206 511.516449
v 2.594759 -2.115027 511.499939
v 2.594759 -2.120459 511.482025
v 2.594759 -2.122293 511.463409
v 2.594759 -2.120459 511.444794
v 2.594759 -2.115027 511.426880
v 2.594759 -2.106206 511.410370
v 2.594759 -2.094335 511.395905
v 2.594759 -2.079870 511.384033
v 2.594759 -2.063368 511.375214
v 2.594759 -2.045461 511.369781
vn 1.0000 -0.0000 -0.0000
vt 0.500000 0.500000
vt 0.500000 1.000000
vt 0.402455 0.990393
vt 0.308658 0.961940
vt 0.222215 0.915735
vt 0.146447 0.853553
vt 0.084265 0.777785
vt 0.038060 0.691342
vt 0.009607 0.597545
vt 0.000000 0.500000
vt 0.009607 0.402455
vt 0.038060 0.308658
vt 0.084265 0.222215
vt 0.146447 0.146447
vt 0.222215 0.084265
vt 0.308658 0.038060
vt 0.402455 0.009607
vt 0.500000 0.000000
vt 0.597545 0.009607
vt 0.691342 0.038060
vt 0.777785 0.084265
vt 0.853553 0.146447
vt 0.915735 0.222215
vt 0.961940 0.308658
vt 0.990393 0.402455
vt 1.000000 0.500000
vt 0.990393 0.597545
vt 0.961940 0.691342
vt 0.915735 0.777785
vt 0.853553 0.853553
vt 0.777785 0.915735
vt 0.691342 0.961940
vt 0.597545 0.990393
s 0
f 34/34/2 35/35/2 36/36/2
f 34/34/2 36/36/2 37/37/2
f 34/34/2 37/37/2 38/38/2
f 34/34/2 38/38/2 39/39/2
f 34/34/2 39/39/2 40/40/2
f 34/34/2 40/40/2 41/41/2
f 34/34/2 41/41/2 42/42/2
f 34/34/2 42/42/2 43/43/2
f 34/34/2 43/43/2 44/44/2
f 34/34/2 44/44/2 45/45/2
f 34/34/2 45/45/2 46/46/2
f 34/34/2 46/46/2 47/47/2
f 34/34/2 47/47/2 48/48/2
f 34/34/2 48/48/2 49/49/2
f 34/34/2 49/49/2 50/50/2
f 34/34/2 50/50/2 51/51/2
f 34/34/2 51/51/2 52/52/2
f 34/34/2 52/52/2 53/53/2
f 34/34/2 53/53/2 54/54/2
f 34/34/2 54/54/2 55/55/2
f 34/34/2 55/55/2 56/56/2
f 34/34/2 56/56/2 57/57/2
f 34/34/2 57/57/2 58/58/2
f 34/34/2 58/58/2 59/59/2
f 34/34/2 59/59/2 60/60/2
f 34/34/2 60/60/2 61/61/2
f 34/34/2 61/61/2 62/62/2
f 34/34/2 62/62/2 63/63/2
f 34/34/2 63/63/2 64/64/2
f 34/34/2 64/64/2 65/65/2
f 34/34/2 65/65/2 66/66/2
f 34/34/2 66/66/2 35/35/2
o singlevertex_test
v 1.718273 1.394187 513.074707
o singlevertex_test_001
v 2.737473 -2.372572 512.259399
